<svg width="24" height="24" viewBox="0 0 24 24" fill="none" xmlns="http://www.w3.org/2000/svg">
<g clip-path="url(#clip0_2093_54407)">
<path d="M15.8506 0H3.41264C3.06636 0 2.78564 0.280714 2.78564 0.825429V23.5714C2.78564 23.7193 3.06636 24 3.41264 24H20.5872C20.9335 24 21.2142 23.7193 21.2142 23.5714V5.562C21.2142 5.26371 21.1744 5.16771 21.1041 5.097L16.1172 0.110143C16.0465 0.0398571 15.9505 0 15.8506 0Z" fill="#E9E9E0"/>
<path d="M16.0713 0.0644531V5.1426H21.1494L16.0713 0.0644531Z" fill="#D9D7CA"/>
<path d="M8.11317 8.14285C9.19462 8.14285 10.0713 7.26616 10.0713 6.18471C10.0713 5.10325 9.19462 4.22656 8.11317 4.22656C7.03172 4.22656 6.15503 5.10325 6.15503 6.18471C6.15503 7.26616 7.03172 8.14285 8.11317 8.14285Z" fill="#F3D55B"/>
<path d="M2.78564 16.7134H7.49993H21.2142V11.9992L16.9285 7.92773L12.4285 12.8563L10.0786 10.5064L2.78564 16.7134Z" fill="#26B99A"/>
<path d="M20.5872 24.0006H3.41264C3.06636 24.0006 2.78564 23.7198 2.78564 23.3736V16.7148H21.2142V23.3736C21.2142 23.7198 20.9335 24.0006 20.5872 24.0006Z" fill="#14A085"/>
<path d="M9.18261 18.2793V21.6427C9.18261 21.8459 9.14532 22.0169 9.07118 22.1553C8.99704 22.2937 8.89718 22.4052 8.77247 22.4892C8.64732 22.5732 8.50375 22.6319 8.34175 22.6649C8.17932 22.6983 8.01261 22.715 7.84075 22.715C7.75461 22.715 7.6539 22.706 7.53904 22.6884C7.42375 22.6709 7.30461 22.6439 7.18161 22.6066C7.05861 22.5693 6.94032 22.5273 6.82718 22.4806C6.71361 22.4339 6.61804 22.3812 6.54004 22.3224L6.83875 21.848C6.87775 21.875 6.93347 21.9037 7.0059 21.9329C7.0779 21.962 7.15718 21.9894 7.24332 22.0147C7.32904 22.0404 7.41904 22.0623 7.5129 22.082C7.60675 22.1017 7.69461 22.1112 7.77647 22.1112C7.98347 22.1112 8.14847 22.0709 8.27147 21.9912C8.39447 21.9114 8.45961 21.7752 8.46775 21.584V18.2793H9.18261Z" fill="white"/>
<path d="M10.9347 22.6859H10.2314V18.3672H11.4734C11.6569 18.3672 11.8386 18.3963 12.0182 18.455C12.1977 18.5138 12.3589 18.6016 12.5016 18.7186C12.6443 18.8356 12.7596 18.9775 12.8474 19.1433C12.9353 19.3092 12.9794 19.4956 12.9794 19.703C12.9794 19.922 12.9422 20.12 12.868 20.2979C12.7939 20.4758 12.6902 20.6253 12.5573 20.7462C12.4244 20.867 12.2642 20.9609 12.0769 21.0273C11.8896 21.0938 11.6822 21.1268 11.4559 21.1268H10.9343L10.9347 22.6859ZM10.9347 18.9008V20.6116H11.5793C11.665 20.6116 11.7499 20.597 11.8343 20.5675C11.9183 20.5383 11.9954 20.4903 12.0657 20.4239C12.136 20.3575 12.1926 20.2649 12.2354 20.1458C12.2783 20.0266 12.2997 19.8792 12.2997 19.7035C12.2997 19.6332 12.2899 19.5518 12.2706 19.4605C12.2509 19.3688 12.211 19.2809 12.1506 19.1969C12.0897 19.1129 12.0049 19.0426 11.8956 18.986C11.7859 18.929 11.6414 18.9008 11.4619 18.9008H10.9347Z" fill="white"/>
<path d="M16.9287 20.4586V22.1283C16.8387 22.2419 16.7384 22.334 16.627 22.4064C16.5156 22.4789 16.3986 22.5384 16.2756 22.5852C16.1526 22.6319 16.0257 22.6653 15.8946 22.6846C15.7634 22.7052 15.634 22.7146 15.505 22.7146C15.247 22.7146 15.01 22.6679 14.7932 22.574C14.5763 22.4802 14.3869 22.3417 14.2249 22.1579C14.0629 21.974 13.9356 21.7439 13.8439 21.4666C13.7522 21.1893 13.7063 20.8687 13.7063 20.5057C13.7063 20.1427 13.7522 19.823 13.8439 19.5479C13.9356 19.2723 14.0624 19.043 14.2249 18.8596C14.3869 18.6757 14.5772 18.5364 14.7962 18.4404C15.0147 18.3444 15.2513 18.2969 15.505 18.2969C15.7394 18.2969 15.958 18.3359 16.1612 18.4139C16.3643 18.4923 16.5456 18.6093 16.7059 18.7653L16.2194 19.199C16.1256 19.0854 16.018 19.0036 15.8972 18.953C15.7759 18.9024 15.6512 18.8767 15.5222 18.8767C15.3777 18.8767 15.2397 18.9037 15.109 18.9586C14.9779 19.0134 14.8609 19.106 14.7576 19.2367C14.6539 19.3679 14.5729 19.5363 14.5146 19.7437C14.4563 19.9512 14.4246 20.2044 14.4207 20.5053C14.4246 20.7984 14.455 21.0522 14.5116 21.2669C14.5682 21.4816 14.6462 21.6573 14.746 21.794C14.8459 21.9307 14.959 22.0323 15.0859 22.0987C15.2127 22.1652 15.3464 22.1982 15.4874 22.1982C15.5303 22.1982 15.5877 22.1952 15.6602 22.1892C15.7322 22.1832 15.8046 22.1737 15.877 22.16C15.949 22.1463 16.0184 22.1279 16.0849 22.1043C16.1513 22.0807 16.2002 22.0477 16.2314 22.0049V20.9386H15.499V20.4582L16.9287 20.4586Z" fill="white"/>
</g>
<defs>
<clipPath id="clip0_2093_54407">
<rect width="24" height="24" fill="white"/>
</clipPath>
</defs>
</svg>
