<svg width="343" height="84" viewBox="0 0 343 84" fill="none" xmlns="http://www.w3.org/2000/svg">
<rect x="0.5" y="0.5" width="342" height="83" rx="41.5" fill="#F9F9FA"/>
<rect x="0.5" y="0.5" width="342" height="83" rx="41.5" stroke="#EEEFF2"/>
<rect x="10" y="10" width="64" height="64" rx="32" fill="white"/>
<path d="M49.489 37.8187C49.375 37.9087 47.3625 39.0628 47.3625 41.6291C47.3625 44.5974 49.9234 45.6475 50 45.6735C49.9882 45.7375 49.5932 47.1116 48.6498 48.5118C47.8086 49.7439 46.9301 50.974 45.5937 50.974C44.2572 50.974 43.9133 50.1839 42.3705 50.1839C40.867 50.1839 40.3324 51 39.1099 51C37.8875 51 37.0345 49.8599 36.0538 48.4597C34.9178 46.8156 34 44.2613 34 41.8371C34 37.9487 36.4842 35.8865 38.9291 35.8865C40.2282 35.8865 41.3111 36.7546 42.1268 36.7546C42.9031 36.7546 44.1137 35.8345 45.5917 35.8345C46.1518 35.8345 48.1644 35.8865 49.489 37.8187ZM44.8901 34.1883C45.5013 33.4502 45.9337 32.4261 45.9337 31.402C45.9337 31.26 45.9219 31.116 45.8963 31C44.9019 31.038 43.7187 31.6741 43.0053 32.5162C42.4452 33.1642 41.9224 34.1883 41.9224 35.2264C41.9224 35.3824 41.9479 35.5385 41.9597 35.5885C42.0226 35.6005 42.1248 35.6145 42.227 35.6145C43.1193 35.6145 44.2415 35.0064 44.8901 34.1883Z" fill="black"/>
<path d="M94.3 47.66C93.9053 47.66 93.5853 47.5427 93.34 47.308C93.1053 47.0733 92.988 46.7693 92.988 46.396C92.988 46.0013 93.1053 45.6813 93.34 45.436C93.5853 45.1907 93.9053 45.068 94.3 45.068C94.6947 45.068 95.0093 45.1907 95.244 45.436C95.4893 45.6813 95.612 46.0013 95.612 46.396C95.612 46.7693 95.4893 47.0733 95.244 47.308C95.0093 47.5427 94.6947 47.66 94.3 47.66ZM113.488 47.66C113.093 47.66 112.773 47.5427 112.528 47.308C112.293 47.0733 112.176 46.7693 112.176 46.396C112.176 46.0013 112.293 45.6813 112.528 45.436C112.773 45.1907 113.093 45.068 113.488 45.068C113.882 45.068 114.197 45.1907 114.432 45.436C114.677 45.6813 114.8 46.0013 114.8 46.396C114.8 46.7693 114.677 47.0733 114.432 47.308C114.197 47.5427 113.882 47.66 113.488 47.66ZM123.081 40.908C122.644 40.908 122.313 40.8013 122.089 40.588C121.865 40.3747 121.753 40.0867 121.753 39.724C121.753 39.3613 121.865 39.0733 122.089 38.86C122.313 38.6467 122.644 38.54 123.081 38.54C123.519 38.54 123.849 38.6467 124.073 38.86C124.297 39.0733 124.409 39.3613 124.409 39.724C124.409 40.0867 124.297 40.3747 124.073 40.588C123.849 40.8013 123.519 40.908 123.081 40.908ZM123.081 47.66C122.644 47.66 122.313 47.5533 122.089 47.34C121.865 47.1267 121.753 46.8387 121.753 46.476C121.753 46.1133 121.865 45.8253 122.089 45.612C122.313 45.3987 122.644 45.292 123.081 45.292C123.519 45.292 123.849 45.3987 124.073 45.612C124.297 45.8253 124.409 46.1133 124.409 46.476C124.409 46.8387 124.297 47.1267 124.073 47.34C123.849 47.5533 123.519 47.66 123.081 47.66ZM133.981 47.66C133.586 47.66 133.271 47.5427 133.037 47.308C132.791 47.0733 132.669 46.7693 132.669 46.396C132.669 46.0013 132.791 45.6813 133.037 45.436C133.271 45.1907 133.586 45.068 133.981 45.068C134.375 45.068 134.695 45.1907 134.941 45.436C135.175 45.6813 135.293 46.0013 135.293 46.396C135.293 46.7693 135.175 47.0733 134.941 47.308C134.695 47.5427 134.375 47.66 133.981 47.66ZM140.989 47.66C140.594 47.66 140.274 47.5427 140.029 47.308C139.794 47.0733 139.677 46.7693 139.677 46.396C139.677 46.0013 139.794 45.6813 140.029 45.436C140.274 45.1907 140.594 45.068 140.989 45.068C141.383 45.068 141.698 45.1907 141.933 45.436C142.178 45.6813 142.301 46.0013 142.301 46.396C142.301 46.7693 142.178 47.0733 141.933 47.308C141.698 47.5427 141.383 47.66 140.989 47.66ZM151.863 40.908C151.425 40.908 151.095 40.8013 150.871 40.588C150.647 40.3747 150.535 40.0867 150.535 39.724C150.535 39.3613 150.647 39.0733 150.871 38.86C151.095 38.6467 151.425 38.54 151.863 38.54C152.3 38.54 152.631 38.6467 152.855 38.86C153.079 39.0733 153.191 39.3613 153.191 39.724C153.191 40.0867 153.079 40.3747 152.855 40.588C152.631 40.8013 152.3 40.908 151.863 40.908ZM151.863 47.66C151.425 47.66 151.095 47.5533 150.871 47.34C150.647 47.1267 150.535 46.8387 150.535 46.476C150.535 46.1133 150.647 45.8253 150.871 45.612C151.095 45.3987 151.425 45.292 151.863 45.292C152.3 45.292 152.631 45.3987 152.855 45.612C153.079 45.8253 153.191 46.1133 153.191 46.476C153.191 46.8387 153.079 47.1267 152.855 47.34C152.631 47.5533 152.3 47.66 151.863 47.66ZM161.456 47.66C161.062 47.66 160.742 47.5427 160.496 47.308C160.262 47.0733 160.144 46.7693 160.144 46.396C160.144 46.0013 160.262 45.6813 160.496 45.436C160.742 45.1907 161.062 45.068 161.456 45.068C161.851 45.068 162.166 45.1907 162.4 45.436C162.646 45.6813 162.768 46.0013 162.768 46.396C162.768 46.7693 162.646 47.0733 162.4 47.308C162.166 47.5427 161.851 47.66 161.456 47.66ZM171.05 40.908C170.613 40.908 170.282 40.8013 170.058 40.588C169.834 40.3747 169.722 40.0867 169.722 39.724C169.722 39.3613 169.834 39.0733 170.058 38.86C170.282 38.6467 170.613 38.54 171.05 38.54C171.487 38.54 171.818 38.6467 172.042 38.86C172.266 39.0733 172.378 39.3613 172.378 39.724C172.378 40.0867 172.266 40.3747 172.042 40.588C171.818 40.8013 171.487 40.908 171.05 40.908ZM171.05 47.66C170.613 47.66 170.282 47.5533 170.058 47.34C169.834 47.1267 169.722 46.8387 169.722 46.476C169.722 46.1133 169.834 45.8253 170.058 45.612C170.282 45.3987 170.613 45.292 171.05 45.292C171.487 45.292 171.818 45.3987 172.042 45.612C172.266 45.8253 172.378 46.1133 172.378 46.476C172.378 46.8387 172.266 47.1267 172.042 47.34C171.818 47.5533 171.487 47.66 171.05 47.66ZM180.644 47.66C180.249 47.66 179.929 47.5427 179.684 47.308C179.449 47.0733 179.332 46.7693 179.332 46.396C179.332 46.0013 179.449 45.6813 179.684 45.436C179.929 45.1907 180.249 45.068 180.644 45.068C181.038 45.068 181.353 45.1907 181.588 45.436C181.833 45.6813 181.956 46.0013 181.956 46.396C181.956 46.7693 181.833 47.0733 181.588 47.308C181.353 47.5427 181.038 47.66 180.644 47.66ZM190.238 40.908C189.8 40.908 189.47 40.8013 189.246 40.588C189.022 40.3747 188.91 40.0867 188.91 39.724C188.91 39.3613 189.022 39.0733 189.246 38.86C189.47 38.6467 189.8 38.54 190.238 38.54C190.675 38.54 191.006 38.6467 191.23 38.86C191.454 39.0733 191.566 39.3613 191.566 39.724C191.566 40.0867 191.454 40.3747 191.23 40.588C191.006 40.8013 190.675 40.908 190.238 40.908ZM190.238 47.66C189.8 47.66 189.47 47.5533 189.246 47.34C189.022 47.1267 188.91 46.8387 188.91 46.476C188.91 46.1133 189.022 45.8253 189.246 45.612C189.47 45.3987 189.8 45.292 190.238 45.292C190.675 45.292 191.006 45.3987 191.23 45.612C191.454 45.8253 191.566 46.1133 191.566 46.476C191.566 46.8387 191.454 47.1267 191.23 47.34C191.006 47.5533 190.675 47.66 190.238 47.66ZM201.137 47.66C200.742 47.66 200.428 47.5427 200.193 47.308C199.948 47.0733 199.825 46.7693 199.825 46.396C199.825 46.0013 199.948 45.6813 200.193 45.436C200.428 45.1907 200.742 45.068 201.137 45.068C201.532 45.068 201.852 45.1907 202.097 45.436C202.332 45.6813 202.449 46.0013 202.449 46.396C202.449 46.7693 202.332 47.0733 202.097 47.308C201.852 47.5427 201.532 47.66 201.137 47.66ZM208.145 47.66C207.75 47.66 207.43 47.5427 207.185 47.308C206.95 47.0733 206.833 46.7693 206.833 46.396C206.833 46.0013 206.95 45.6813 207.185 45.436C207.43 45.1907 207.75 45.068 208.145 45.068C208.54 45.068 208.854 45.1907 209.089 45.436C209.334 45.6813 209.457 46.0013 209.457 46.396C209.457 46.7693 209.334 47.0733 209.089 47.308C208.854 47.5427 208.54 47.66 208.145 47.66ZM219.019 40.908C218.581 40.908 218.251 40.8013 218.027 40.588C217.803 40.3747 217.691 40.0867 217.691 39.724C217.691 39.3613 217.803 39.0733 218.027 38.86C218.251 38.6467 218.581 38.54 219.019 38.54C219.456 38.54 219.787 38.6467 220.011 38.86C220.235 39.0733 220.347 39.3613 220.347 39.724C220.347 40.0867 220.235 40.3747 220.011 40.588C219.787 40.8013 219.456 40.908 219.019 40.908ZM219.019 47.66C218.581 47.66 218.251 47.5533 218.027 47.34C217.803 47.1267 217.691 46.8387 217.691 46.476C217.691 46.1133 217.803 45.8253 218.027 45.612C218.251 45.3987 218.581 45.292 219.019 45.292C219.456 45.292 219.787 45.3987 220.011 45.612C220.235 45.8253 220.347 46.1133 220.347 46.476C220.347 46.8387 220.235 47.1267 220.011 47.34C219.787 47.5533 219.456 47.66 219.019 47.66ZM228.613 47.66C228.218 47.66 227.898 47.5427 227.653 47.308C227.418 47.0733 227.301 46.7693 227.301 46.396C227.301 46.0013 227.418 45.6813 227.653 45.436C227.898 45.1907 228.218 45.068 228.613 45.068C229.007 45.068 229.322 45.1907 229.557 45.436C229.802 45.6813 229.925 46.0013 229.925 46.396C229.925 46.7693 229.802 47.0733 229.557 47.308C229.322 47.5427 229.007 47.66 228.613 47.66ZM247.8 47.66C247.405 47.66 247.085 47.5427 246.84 47.308C246.605 47.0733 246.488 46.7693 246.488 46.396C246.488 46.0013 246.605 45.6813 246.84 45.436C247.085 45.1907 247.405 45.068 247.8 45.068C248.195 45.068 248.509 45.1907 248.744 45.436C248.989 45.6813 249.112 46.0013 249.112 46.396C249.112 46.7693 248.989 47.0733 248.744 47.308C248.509 47.5427 248.195 47.66 247.8 47.66Z" fill="#807E7F"/>
<rect x="269" y="10" width="64" height="64" rx="32" fill="white"/>
<path d="M293 34H309V50H293V34Z" fill="#F3F3F3"/>
<path d="M293.695 34.6968H300.652V41.6533H293.695V34.6968Z" fill="#F35325"/>
<path d="M301.348 34.6968H308.304V41.6533H301.348V34.6968Z" fill="#81BC06"/>
<path d="M293.695 42.3479H300.652V49.3044H293.695V42.3479Z" fill="#05A6F0"/>
<path d="M301.348 42.3479H308.304V49.3044H301.348V42.3479Z" fill="#FFBA08"/>
</svg>
