<svg width="18" height="18" viewBox="0 0 18 18" fill="none" xmlns="http://www.w3.org/2000/svg">
<path d="M9.00464 0L8.61307 1.21521L9.21601 1.41276L9.00464 0Z" fill="black"/>
<path d="M9.00464 0L9.39621 1.21521L8.79327 1.41276L9.00464 0Z" fill="black"/>
<path d="M10.2151 0.881836L8.94723 0.881836L8.94723 1.52075L10.2151 0.881836Z" fill="black"/>
<path d="M10.2151 0.881836L9.18937 1.6333L8.81694 1.11641L10.2151 0.881836Z" fill="black"/>
<path d="M9.75439 2.31104L9.36282 1.09554L8.76003 1.29308L9.75439 2.31104Z" fill="black"/>
<path d="M9.75439 2.31104L8.72898 1.55991L9.10157 1.04286L9.75439 2.31104Z" fill="black"/>
<path d="M7.78442 0.881836L9.05245 0.881836L9.05245 1.52066L7.78442 0.881836Z" fill="black"/>
<path d="M7.78442 0.881836L8.81001 1.6332L9.18249 1.11624L7.78442 0.881836Z" fill="black"/>
<path d="M8.25232 2.31104L8.64397 1.09557L9.24678 1.29307L8.25232 2.31104Z" fill="black"/>
<path d="M8.25232 2.31104L9.27768 1.55983L8.90513 1.04276L8.25232 2.31104Z" fill="black"/>
<path d="M9.00464 15.3318L8.61307 16.547L9.21601 16.7445L9.00464 15.3318Z" fill="black"/>
<path d="M9.00464 15.3318L9.39621 16.547L8.79327 16.7445L9.00464 15.3318Z" fill="black"/>
<path d="M10.2151 16.2141L8.94723 16.2141L8.94723 16.853L10.2151 16.2141Z" fill="black"/>
<path d="M10.2151 16.2141L9.18937 16.9656L8.81694 16.4487L10.2151 16.2141Z" fill="black"/>
<path d="M9.75439 17.6433L9.36282 16.4278L8.76003 16.6254L9.75439 17.6433Z" fill="black"/>
<path d="M9.75439 17.6433L8.72898 16.8922L9.10157 16.3751L9.75439 17.6433Z" fill="black"/>
<path d="M7.78442 16.2141L9.05245 16.2141L9.05245 16.8529L7.78442 16.2141Z" fill="black"/>
<path d="M7.78442 16.2141L8.81001 16.9655L9.18249 16.4485L7.78442 16.2141Z" fill="black"/>
<path d="M8.25232 17.6428L8.64397 16.4274L9.24678 16.6249L8.25232 17.6428Z" fill="black"/>
<path d="M8.25232 17.6428L9.27768 16.8916L8.90513 16.3746L8.25232 17.6428Z" fill="black"/>
<path d="M1.39331 7.66699L1.00174 8.8822L1.60468 9.07975L1.39331 7.66699Z" fill="black"/>
<path d="M1.39331 7.66699L1.78488 8.8822L1.18194 9.07975L1.39331 7.66699Z" fill="black"/>
<path d="M2.61719 8.54956L1.34933 8.54956L1.34933 9.18847L2.61719 8.54956Z" fill="black"/>
<path d="M2.61719 8.54956L1.59147 9.30102L1.21904 8.78413L2.61719 8.54956Z" fill="black"/>
<path d="M2.16016 9.97827L1.7685 8.7628L1.16569 8.9603L2.16016 9.97827Z" fill="black"/>
<path d="M2.16016 9.97827L1.13479 9.22707L1.50735 8.71L2.16016 9.97827Z" fill="black"/>
<path d="M0.185791 8.54932L1.45365 8.54932L1.45365 9.18823L0.185791 8.54932Z" fill="black"/>
<path d="M0.185791 8.54932L1.21151 9.30078L1.58394 8.78389L0.185791 8.54932Z" fill="black"/>
<path d="M0.646973 9.97852L1.03854 8.76302L1.64134 8.96056L0.646973 9.97852Z" fill="black"/>
<path d="M0.646973 9.97852L1.67239 9.22739L1.2998 8.71034L0.646973 9.97852Z" fill="black"/>
<path d="M4.45398 3.33887L5.4794 2.58774L5.1068 2.07069L4.45398 3.33887Z" fill="black"/>
<path d="M4.45398 3.33887L4.84555 2.12337L5.44835 2.32092L4.45398 3.33887Z" fill="black"/>
<path d="M4.01025 1.91016L5.0358 2.66149L5.40829 2.14451L4.01025 1.91016Z" fill="black"/>
<path d="M4.01025 1.91016L5.27789 1.91016L5.27789 2.54918L4.01025 1.91016Z" fill="black"/>
<path d="M5.20752 1.02783L4.81584 2.24338L5.41861 2.44087L5.20752 1.02783Z" fill="black"/>
<path d="M5.20752 1.02783L5.5992 2.24338L4.99643 2.44087L5.20752 1.02783Z" fill="black"/>
<path d="M5.94519 3.33936L4.91969 2.58797L5.29215 2.07096L5.94519 3.33936Z" fill="black"/>
<path d="M5.94519 3.33936L5.5534 2.1237L4.95068 2.32113L5.94519 3.33936Z" fill="black"/>
<path d="M6.40051 1.91064L5.37508 2.6619L5.00255 2.14486L6.40051 1.91064Z" fill="black"/>
<path d="M6.40051 1.91064L5.13301 1.91064L5.13301 2.54973L6.40051 1.91064Z" fill="black"/>
<path d="M3.15186 6.14502L2.7602 4.92955L2.15739 5.12705L3.15186 6.14502Z" fill="black"/>
<path d="M3.15186 6.14502L2.12649 5.39382L2.49905 4.87675L3.15186 6.14502Z" fill="black"/>
<path d="M1.67114 6.14575L2.69668 5.39442L2.32419 4.87744L1.67114 6.14575Z" fill="black"/>
<path d="M1.67114 6.14575L2.06286 4.93007L2.66557 5.12754L1.67114 6.14575Z" fill="black"/>
<path d="M1.21191 4.71631L2.23735 5.46756L2.60988 4.95053L1.21191 4.71631Z" fill="black"/>
<path d="M1.21191 4.71631L2.47942 4.71631L2.47942 5.3554L1.21191 4.71631Z" fill="black"/>
<path d="M3.62183 4.71655L2.59624 5.46783L2.22372 4.95087L3.62183 4.71655Z" fill="black"/>
<path d="M3.62183 4.71655L2.35419 4.71662L2.35415 5.35565L3.62183 4.71655Z" fill="black"/>
<path d="M2.41284 3.83447L2.80452 5.05002L2.20175 5.24751L2.41284 3.83447Z" fill="black"/>
<path d="M2.41284 3.83447L2.02116 5.05002L2.62393 5.24751L2.41284 3.83447Z" fill="black"/>
<path d="M3.62183 12.3831L2.35397 12.3831L2.35397 13.022L3.62183 12.3831Z" fill="black"/>
<path d="M3.62183 12.3831L2.59611 13.1345L2.22368 12.6176L3.62183 12.3831Z" fill="black"/>
<path d="M3.15063 13.8118L2.75902 12.5964L2.15615 12.794L3.15063 13.8118Z" fill="black"/>
<path d="M3.15063 13.8118L2.12538 13.0606L2.49798 12.5435L3.15063 13.8118Z" fill="black"/>
<path d="M1.66895 13.8123L2.69449 13.0609L2.32199 12.5439L1.66895 13.8123Z" fill="black"/>
<path d="M1.66895 13.8123L2.06067 12.5966L2.66337 12.794L1.66895 13.8123Z" fill="black"/>
<path d="M2.43677 11.4998L2.82838 12.7151L2.22551 12.9126L2.43677 11.4998Z" fill="black"/>
<path d="M2.43677 11.4998L2.04516 12.7151L2.64803 12.9126L2.43677 11.4998Z" fill="black"/>
<path d="M1.21191 12.3838L2.47955 12.3838L2.47955 13.0228L1.21191 12.3838Z" fill="black"/>
<path d="M1.21191 12.3838L2.23746 13.1351L2.60995 12.6181L1.21191 12.3838Z" fill="black"/>
<path d="M6.40808 15.1887L5.14022 15.1887L5.14022 15.8276L6.40808 15.1887Z" fill="black"/>
<path d="M6.40808 15.1887L5.38236 15.9402L5.00993 15.4233L6.40808 15.1887Z" fill="black"/>
<path d="M5.9231 16.6167L5.53148 15.4014L4.92861 15.5989L5.9231 16.6167Z" fill="black"/>
<path d="M5.9231 16.6167L4.89784 15.8656L5.27044 15.3485L5.9231 16.6167Z" fill="black"/>
<path d="M4.44897 16.6182L5.47447 15.8668L5.10201 15.3498L4.44897 16.6182Z" fill="black"/>
<path d="M4.44897 16.6182L4.84076 15.4025L5.44348 15.5999L4.44897 16.6182Z" fill="black"/>
<path d="M5.18555 14.3059L5.57716 15.5212L4.97429 15.7188L5.18555 14.3059Z" fill="black"/>
<path d="M5.18555 14.3059L4.79393 15.5212L5.39681 15.7188L5.18555 14.3059Z" fill="black"/>
<path d="M3.99951 15.1887L5.26715 15.1887L5.26715 15.8277L3.99951 15.1887Z" fill="black"/>
<path d="M3.99951 15.1887L5.02505 15.9401L5.39755 15.4231L3.99951 15.1887Z" fill="black"/>
<path d="M16.6072 7.66675L16.9987 8.88196L16.3958 9.0795L16.6072 7.66675Z" fill="black"/>
<path d="M16.6072 7.66675L16.2156 8.88196L16.8185 9.0795L16.6072 7.66675Z" fill="black"/>
<path d="M15.3967 8.54883L16.6646 8.54883L16.6646 9.18774L15.3967 8.54883Z" fill="black"/>
<path d="M15.3967 8.54883L16.4224 9.30029L16.7949 8.7834L15.3967 8.54883Z" fill="black"/>
<path d="M15.8575 9.97778L16.2491 8.76229L16.8519 8.95983L15.8575 9.97778Z" fill="black"/>
<path d="M15.8575 9.97778L16.883 9.22665L16.5104 8.70961L15.8575 9.97778Z" fill="black"/>
<path d="M17.8164 8.54834L16.5485 8.54834L16.5485 9.18725L17.8164 8.54834Z" fill="black"/>
<path d="M17.8164 8.54834L16.7907 9.2998L16.4183 8.78291L17.8164 8.54834Z" fill="black"/>
<path d="M17.3593 9.97729L16.9676 8.76183L16.3648 8.95933L17.3593 9.97729Z" fill="black"/>
<path d="M17.3593 9.97729L16.3339 9.22609L16.7064 8.70902L17.3593 9.97729Z" fill="black"/>
<path d="M13.5507 3.33789L12.5253 2.58669L12.8979 2.06962L13.5507 3.33789Z" fill="black"/>
<path d="M13.5507 3.33789L13.159 2.12242L12.5562 2.31992L13.5507 3.33789Z" fill="black"/>
<path d="M13.9998 1.90991L12.9742 2.66124L12.6017 2.14426L13.9998 1.90991Z" fill="black"/>
<path d="M13.9998 1.90991L12.7321 1.90991L12.7321 2.54893L13.9998 1.90991Z" fill="black"/>
<path d="M12.7948 1.02661L13.1865 2.24216L12.5837 2.43965L12.7948 1.02661Z" fill="black"/>
<path d="M12.7948 1.02661L12.4031 2.24216L13.0059 2.43965L12.7948 1.02661Z" fill="black"/>
<path d="M12.061 3.33984L13.0866 2.58851L12.7141 2.07153L12.061 3.33984Z" fill="black"/>
<path d="M12.061 3.33984L12.4528 2.12416L13.0555 2.32163L12.061 3.33984Z" fill="black"/>
<path d="M11.5934 1.90991L12.6188 2.66119L12.9913 2.14414L11.5934 1.90991Z" fill="black"/>
<path d="M11.5934 1.90991L12.8609 1.90988L12.8609 2.54897L11.5934 1.90991Z" fill="black"/>
<path d="M14.8523 6.14502L15.2439 4.92955L15.8468 5.12705L14.8523 6.14502Z" fill="black"/>
<path d="M14.8523 6.14502L15.8777 5.39382L15.5051 4.87675L14.8523 6.14502Z" fill="black"/>
<path d="M16.3389 6.14502L15.3134 5.39363L15.6858 4.87663L16.3389 6.14502Z" fill="black"/>
<path d="M16.3389 6.14502L15.9471 4.92936L15.3444 5.1268L16.3389 6.14502Z" fill="black"/>
<path d="M16.7863 4.71606L15.7608 5.46732L15.3883 4.95028L16.7863 4.71606Z" fill="black"/>
<path d="M16.7863 4.71606L15.5188 4.71606L15.5188 5.35515L16.7863 4.71606Z" fill="black"/>
<path d="M14.3961 4.71606L15.4217 5.4674L15.7942 4.95042L14.3961 4.71606Z" fill="black"/>
<path d="M14.3961 4.71606L15.6638 4.71606L15.6638 5.35509L14.3961 4.71606Z" fill="black"/>
<path d="M15.5933 3.83325L15.2016 5.0488L15.8044 5.24629L15.5933 3.83325Z" fill="black"/>
<path d="M15.5933 3.83325L15.9849 5.0488L15.3822 5.24629L15.5933 3.83325Z" fill="black"/>
<path d="M14.3867 12.3816L15.6546 12.3816L15.6546 13.0205L14.3867 12.3816Z" fill="black"/>
<path d="M14.3867 12.3816L15.4124 13.1331L15.7849 12.6162L14.3867 12.3816Z" fill="black"/>
<path d="M14.8595 13.8101L15.2511 12.5947L15.854 12.7922L14.8595 13.8101Z" fill="black"/>
<path d="M14.8595 13.8101L15.8848 13.0589L15.5122 12.5418L14.8595 13.8101Z" fill="black"/>
<path d="M16.3378 13.8103L15.3123 13.0589L15.6847 12.5419L16.3378 13.8103Z" fill="black"/>
<path d="M16.3378 13.8103L15.946 12.5946L15.3433 12.7921L16.3378 13.8103Z" fill="black"/>
<path d="M15.5775 11.4985L15.1859 12.7139L15.7888 12.9114L15.5775 11.4985Z" fill="black"/>
<path d="M15.5775 11.4985L15.9691 12.7139L15.3663 12.9114L15.5775 11.4985Z" fill="black"/>
<path d="M16.7947 12.3823L15.527 12.3824L15.527 13.0214L16.7947 12.3823Z" fill="black"/>
<path d="M16.7947 12.3823L15.7691 13.1336L15.3966 12.6166L16.7947 12.3823Z" fill="black"/>
<path d="M11.5961 15.1882L12.8639 15.1882L12.8639 15.8271L11.5961 15.1882Z" fill="black"/>
<path d="M11.5961 15.1882L12.6218 15.9397L12.9942 15.4228L11.5961 15.1882Z" fill="black"/>
<path d="M12.0671 16.6157L12.4588 15.4004L13.0616 15.5979L12.0671 16.6157Z" fill="black"/>
<path d="M12.0671 16.6157L13.0924 15.8646L12.7198 15.3475L12.0671 16.6157Z" fill="black"/>
<path d="M13.5491 16.6169L12.5235 15.8656L12.896 15.3486L13.5491 16.6169Z" fill="black"/>
<path d="M13.5491 16.6169L13.1574 15.4013L12.5546 15.5987L13.5491 16.6169Z" fill="black"/>
<path d="M12.8085 14.3049L12.4169 15.5203L13.0197 15.7178L12.8085 14.3049Z" fill="black"/>
<path d="M12.8085 14.3049L13.2001 15.5203L12.5972 15.7178L12.8085 14.3049Z" fill="black"/>
<path d="M13.9983 15.188L12.7307 15.188L12.7307 15.827L13.9983 15.188Z" fill="black"/>
<path d="M13.9983 15.188L12.9727 15.9393L12.6003 15.4223L13.9983 15.188Z" fill="black"/>
</svg>
