<svg width="18" height="18" viewBox="0 0 18 18" fill="none" xmlns="http://www.w3.org/2000/svg">
<path d="M9.00488 0L8.61331 1.21521L9.21625 1.41276L9.00488 0Z" fill="white"/>
<path d="M9.00488 0L9.39645 1.21521L8.79351 1.41276L9.00488 0Z" fill="white"/>
<path d="M10.2152 0.881836L8.94735 0.881836L8.94735 1.52075L10.2152 0.881836Z" fill="white"/>
<path d="M10.2152 0.881836L9.18949 1.6333L8.81706 1.11641L10.2152 0.881836Z" fill="white"/>
<path d="M9.75452 2.31091L9.36295 1.09542L8.76015 1.29296L9.75452 2.31091Z" fill="white"/>
<path d="M9.75452 2.31091L8.7291 1.55978L9.10169 1.04274L9.75452 2.31091Z" fill="white"/>
<path d="M7.78467 0.881836L9.0527 0.881836L9.0527 1.52066L7.78467 0.881836Z" fill="white"/>
<path d="M7.78467 0.881836L8.81025 1.6332L9.18273 1.11624L7.78467 0.881836Z" fill="white"/>
<path d="M8.25269 2.31104L8.64434 1.09557L9.24715 1.29307L8.25269 2.31104Z" fill="white"/>
<path d="M8.25269 2.31104L9.27805 1.55983L8.90549 1.04276L8.25269 2.31104Z" fill="white"/>
<path d="M9.00488 15.3318L8.61331 16.547L9.21625 16.7445L9.00488 15.3318Z" fill="white"/>
<path d="M9.00488 15.3318L9.39645 16.547L8.79351 16.7445L9.00488 15.3318Z" fill="white"/>
<path d="M10.2152 16.2141L8.94735 16.2141L8.94735 16.853L10.2152 16.2141Z" fill="white"/>
<path d="M10.2152 16.2141L9.18949 16.9656L8.81706 16.4487L10.2152 16.2141Z" fill="white"/>
<path d="M9.75452 17.6432L9.36295 16.4277L8.76015 16.6252L9.75452 17.6432Z" fill="white"/>
<path d="M9.75452 17.6432L8.7291 16.8921L9.10169 16.375L9.75452 17.6432Z" fill="white"/>
<path d="M7.78467 16.2141L9.0527 16.2141L9.0527 16.8529L7.78467 16.2141Z" fill="white"/>
<path d="M7.78467 16.2141L8.81025 16.9655L9.18273 16.4485L7.78467 16.2141Z" fill="white"/>
<path d="M8.25269 17.6428L8.64434 16.4274L9.24715 16.6249L8.25269 17.6428Z" fill="white"/>
<path d="M8.25269 17.6428L9.27805 16.8916L8.90549 16.3746L8.25269 17.6428Z" fill="white"/>
<path d="M1.3938 7.66687L1.00223 8.88208L1.60517 9.07963L1.3938 7.66687Z" fill="white"/>
<path d="M1.3938 7.66687L1.78537 8.88208L1.18243 9.07963L1.3938 7.66687Z" fill="white"/>
<path d="M2.61768 8.54944L1.34982 8.54944L1.34982 9.18835L2.61768 8.54944Z" fill="white"/>
<path d="M2.61768 8.54944L1.59196 9.3009L1.21953 8.78401L2.61768 8.54944Z" fill="white"/>
<path d="M2.1604 9.97815L1.76875 8.76268L1.16594 8.96018L2.1604 9.97815Z" fill="white"/>
<path d="M2.1604 9.97815L1.13504 9.22695L1.50759 8.70988L2.1604 9.97815Z" fill="white"/>
<path d="M0.186279 8.54919L1.45414 8.54919L1.45414 9.18811L0.186279 8.54919Z" fill="white"/>
<path d="M0.186279 8.54919L1.212 9.30066L1.58443 8.78377L0.186279 8.54919Z" fill="white"/>
<path d="M0.647217 9.97827L1.03879 8.76277L1.64158 8.96032L0.647217 9.97827Z" fill="white"/>
<path d="M0.647217 9.97827L1.67263 9.22714L1.30004 8.7101L0.647217 9.97827Z" fill="white"/>
<path d="M4.45447 3.33911L5.47988 2.58798L5.10729 2.07094L4.45447 3.33911Z" fill="white"/>
<path d="M4.45447 3.33911L4.84604 2.12361L5.44883 2.32116L4.45447 3.33911Z" fill="white"/>
<path d="M4.01074 1.91028L5.03628 2.66161L5.40878 2.14463L4.01074 1.91028Z" fill="white"/>
<path d="M4.01074 1.91028L5.27838 1.91028L5.27838 2.5493L4.01074 1.91028Z" fill="white"/>
<path d="M5.20801 1.02795L4.81633 2.2435L5.4191 2.44099L5.20801 1.02795Z" fill="white"/>
<path d="M5.20801 1.02795L5.59969 2.2435L4.99692 2.44099L5.20801 1.02795Z" fill="white"/>
<path d="M5.94568 3.3396L4.92018 2.58821L5.29264 2.07121L5.94568 3.3396Z" fill="white"/>
<path d="M5.94568 3.3396L5.55389 2.12394L4.95117 2.32138L5.94568 3.3396Z" fill="white"/>
<path d="M6.401 1.91077L5.37557 2.66202L5.00304 2.14498L6.401 1.91077Z" fill="white"/>
<path d="M6.401 1.91077L5.1335 1.91077L5.1335 2.54986L6.401 1.91077Z" fill="white"/>
<path d="M3.15234 6.1449L2.76069 4.92943L2.15788 5.12693L3.15234 6.1449Z" fill="white"/>
<path d="M3.15234 6.1449L2.12698 5.3937L2.49954 4.87663L3.15234 6.1449Z" fill="white"/>
<path d="M1.67163 6.14575L2.69717 5.39442L2.32468 4.87744L1.67163 6.14575Z" fill="white"/>
<path d="M1.67163 6.14575L2.06335 4.93007L2.66606 5.12754L1.67163 6.14575Z" fill="white"/>
<path d="M1.2124 4.71606L2.23783 5.46732L2.61037 4.95028L1.2124 4.71606Z" fill="white"/>
<path d="M1.2124 4.71606L2.47991 4.71606L2.47991 5.35515L1.2124 4.71606Z" fill="white"/>
<path d="M3.62231 4.71631L2.59673 5.46758L2.22421 4.95062L3.62231 4.71631Z" fill="white"/>
<path d="M3.62231 4.71631L2.35468 4.71638L2.35464 5.3554L3.62231 4.71631Z" fill="white"/>
<path d="M2.41333 3.83435L2.80501 5.0499L2.20224 5.24739L2.41333 3.83435Z" fill="white"/>
<path d="M2.41333 3.83435L2.02165 5.0499L2.62442 5.24739L2.41333 3.83435Z" fill="white"/>
<path d="M3.62231 12.3829L2.35445 12.3829L2.35445 13.0218L3.62231 12.3829Z" fill="white"/>
<path d="M3.62231 12.3829L2.59659 13.1344L2.22417 12.6175L3.62231 12.3829Z" fill="white"/>
<path d="M3.15112 13.8116L2.75951 12.5963L2.15664 12.7938L3.15112 13.8116Z" fill="white"/>
<path d="M3.15112 13.8116L2.12587 13.0605L2.49847 12.5434L3.15112 13.8116Z" fill="white"/>
<path d="M1.66943 13.8123L2.69498 13.0609L2.32248 12.5439L1.66943 13.8123Z" fill="white"/>
<path d="M1.66943 13.8123L2.06116 12.5966L2.66386 12.794L1.66943 13.8123Z" fill="white"/>
<path d="M2.43726 11.4999L2.82887 12.7152L2.22599 12.9127L2.43726 11.4999Z" fill="white"/>
<path d="M2.43726 11.4999L2.04564 12.7152L2.64852 12.9127L2.43726 11.4999Z" fill="white"/>
<path d="M1.2124 12.3839L2.48004 12.3839L2.48004 13.0229L1.2124 12.3839Z" fill="white"/>
<path d="M1.2124 12.3839L2.23794 13.1352L2.61044 12.6183L1.2124 12.3839Z" fill="white"/>
<path d="M6.40857 15.1884L5.14071 15.1884L5.14071 15.8273L6.40857 15.1884Z" fill="white"/>
<path d="M6.40857 15.1884L5.38285 15.9398L5.01042 15.4229L6.40857 15.1884Z" fill="white"/>
<path d="M5.92358 16.6166L5.53197 15.4012L4.9291 15.5988L5.92358 16.6166Z" fill="white"/>
<path d="M5.92358 16.6166L4.89833 15.8655L5.27093 15.3483L5.92358 16.6166Z" fill="white"/>
<path d="M4.44946 16.6182L5.47496 15.8668L5.1025 15.3498L4.44946 16.6182Z" fill="white"/>
<path d="M4.44946 16.6182L4.84125 15.4025L5.44397 15.5999L4.44946 16.6182Z" fill="white"/>
<path d="M5.18604 14.3058L5.57765 15.5211L4.97477 15.7187L5.18604 14.3058Z" fill="white"/>
<path d="M5.18604 14.3058L4.79442 15.5211L5.3973 15.7187L5.18604 14.3058Z" fill="white"/>
<path d="M4 15.1888L5.26764 15.1888L5.26764 15.8279L4 15.1888Z" fill="white"/>
<path d="M4 15.1888L5.02554 15.9402L5.39803 15.4232L4 15.1888Z" fill="white"/>
<path d="M16.6074 7.66675L16.999 8.88196L16.3961 9.0795L16.6074 7.66675Z" fill="white"/>
<path d="M16.6074 7.66675L16.2159 8.88196L16.8188 9.0795L16.6074 7.66675Z" fill="white"/>
<path d="M15.397 8.54883L16.6648 8.54883L16.6648 9.18774L15.397 8.54883Z" fill="white"/>
<path d="M15.397 8.54883L16.4227 9.30029L16.7951 8.7834L15.397 8.54883Z" fill="white"/>
<path d="M15.8578 9.97766L16.2494 8.76216L16.8522 8.95971L15.8578 9.97766Z" fill="white"/>
<path d="M15.8578 9.97766L16.8832 9.22653L16.5106 8.70949L15.8578 9.97766Z" fill="white"/>
<path d="M17.8167 8.54834L16.5488 8.54834L16.5488 9.18725L17.8167 8.54834Z" fill="white"/>
<path d="M17.8167 8.54834L16.7909 9.2998L16.4185 8.78291L17.8167 8.54834Z" fill="white"/>
<path d="M17.3596 9.97729L16.968 8.76183L16.3652 8.95933L17.3596 9.97729Z" fill="white"/>
<path d="M17.3596 9.97729L16.3343 9.22609L16.7068 8.70902L17.3596 9.97729Z" fill="white"/>
<path d="M13.5509 3.33813L12.5255 2.58693L12.8981 2.06986L13.5509 3.33813Z" fill="white"/>
<path d="M13.5509 3.33813L13.1592 2.12267L12.5564 2.32017L13.5509 3.33813Z" fill="white"/>
<path d="M14 1.90991L12.9745 2.66124L12.602 2.14426L14 1.90991Z" fill="white"/>
<path d="M14 1.90991L12.7324 1.90991L12.7324 2.54893L14 1.90991Z" fill="white"/>
<path d="M12.795 1.02686L13.1867 2.24241L12.584 2.4399L12.795 1.02686Z" fill="white"/>
<path d="M12.795 1.02686L12.4034 2.24241L13.0061 2.4399L12.795 1.02686Z" fill="white"/>
<path d="M12.0614 3.34021L13.0869 2.58888L12.7145 2.0719L12.0614 3.34021Z" fill="white"/>
<path d="M12.0614 3.34021L12.4531 2.12453L13.0558 2.322L12.0614 3.34021Z" fill="white"/>
<path d="M11.5936 1.90991L12.619 2.66119L12.9916 2.14414L11.5936 1.90991Z" fill="white"/>
<path d="M11.5936 1.90991L12.8611 1.90988L12.8611 2.54897L11.5936 1.90991Z" fill="white"/>
<path d="M14.8525 6.1449L15.2442 4.92943L15.847 5.12693L14.8525 6.1449Z" fill="white"/>
<path d="M14.8525 6.1449L15.8779 5.3937L15.5053 4.87663L14.8525 6.1449Z" fill="white"/>
<path d="M16.3391 6.14526L15.3136 5.39387L15.6861 4.87687L16.3391 6.14526Z" fill="white"/>
<path d="M16.3391 6.14526L15.9473 4.92961L15.3446 5.12704L16.3391 6.14526Z" fill="white"/>
<path d="M16.7865 4.71619L15.7611 5.46744L15.3885 4.9504L16.7865 4.71619Z" fill="white"/>
<path d="M16.7865 4.71619L15.519 4.71619L15.519 5.35528L16.7865 4.71619Z" fill="white"/>
<path d="M14.3964 4.71631L15.4219 5.46764L15.7944 4.95066L14.3964 4.71631Z" fill="white"/>
<path d="M14.3964 4.71631L15.664 4.71631L15.664 5.35533L14.3964 4.71631Z" fill="white"/>
<path d="M15.5935 3.8335L15.2018 5.04905L15.8046 5.24654L15.5935 3.8335Z" fill="white"/>
<path d="M15.5935 3.8335L15.9852 5.04905L15.3824 5.24654L15.5935 3.8335Z" fill="white"/>
<path d="M14.387 12.3816L15.6548 12.3816L15.6548 13.0205L14.387 12.3816Z" fill="white"/>
<path d="M14.387 12.3816L15.4127 13.1331L15.7851 12.6162L14.387 12.3816Z" fill="white"/>
<path d="M14.8597 13.8101L15.2514 12.5947L15.8542 12.7922L14.8597 13.8101Z" fill="white"/>
<path d="M14.8597 13.8101L15.885 13.0589L15.5124 12.5418L14.8597 13.8101Z" fill="white"/>
<path d="M16.338 13.8104L15.3125 13.059L15.685 12.542L16.338 13.8104Z" fill="white"/>
<path d="M16.338 13.8104L15.9462 12.5948L15.3435 12.7922L16.338 13.8104Z" fill="white"/>
<path d="M15.5778 11.4988L15.1861 12.7141L15.789 12.9116L15.5778 11.4988Z" fill="white"/>
<path d="M15.5778 11.4988L15.9694 12.7141L15.3665 12.9116L15.5778 11.4988Z" fill="white"/>
<path d="M16.7949 12.3822L15.5273 12.3823L15.5272 13.0213L16.7949 12.3822Z" fill="white"/>
<path d="M16.7949 12.3822L15.7693 13.1335L15.3968 12.6165L16.7949 12.3822Z" fill="white"/>
<path d="M11.5963 15.1882L12.8642 15.1882L12.8642 15.8271L11.5963 15.1882Z" fill="white"/>
<path d="M11.5963 15.1882L12.622 15.9397L12.9945 15.4228L11.5963 15.1882Z" fill="white"/>
<path d="M12.0674 16.6154L12.459 15.4L13.0619 15.5975L12.0674 16.6154Z" fill="white"/>
<path d="M12.0674 16.6154L13.0926 15.8642L12.72 15.3471L12.0674 16.6154Z" fill="white"/>
<path d="M13.5493 16.6169L12.5238 15.8656L12.8963 15.3486L13.5493 16.6169Z" fill="white"/>
<path d="M13.5493 16.6169L13.1576 15.4013L12.5549 15.5987L13.5493 16.6169Z" fill="white"/>
<path d="M12.8087 14.3049L12.4171 15.5203L13.02 15.7178L12.8087 14.3049Z" fill="white"/>
<path d="M12.8087 14.3049L13.2003 15.5203L12.5975 15.7178L12.8087 14.3049Z" fill="white"/>
<path d="M13.9985 15.188L12.7309 15.188L12.7309 15.827L13.9985 15.188Z" fill="white"/>
<path d="M13.9985 15.188L12.973 15.9393L12.6005 15.4223L13.9985 15.188Z" fill="white"/>
</svg>
