<svg width="64" height="64" viewBox="0 0 64 64" fill="none" xmlns="http://www.w3.org/2000/svg">
<circle cx="32" cy="32" r="31.5" fill="white" stroke="#EEEFF2"/>
<path d="M40.4206 23.5789L32.8418 22.7368L23.5786 23.5789L22.7363 32L23.5784 40.4211L31.9995 41.4738L40.4206 40.4211L41.2627 31.7896L40.4206 23.5789Z" fill="white"/>
<path d="M27.0337 36.6442C26.4042 36.2189 25.9684 35.598 25.7305 34.7769L27.1916 34.1748C27.3242 34.6801 27.5557 35.0716 27.8863 35.3495C28.2148 35.6274 28.6148 35.7642 29.0821 35.7642C29.5601 35.7642 29.9706 35.6189 30.3137 35.3284C30.6567 35.0378 30.8295 34.6673 30.8295 34.2189C30.8295 33.7601 30.6484 33.3852 30.2863 33.0948C29.9242 32.8044 29.4695 32.6589 28.9263 32.6589H28.0821V31.2127H28.8399C29.3073 31.2127 29.701 31.0865 30.021 30.8338C30.341 30.5812 30.501 30.2359 30.501 29.7959C30.501 29.4044 30.3578 29.0927 30.0716 28.8591C29.7853 28.6255 29.4231 28.5076 28.9831 28.5076C28.5537 28.5076 28.2125 28.6213 27.9599 28.8508C27.7073 29.0802 27.5241 29.3623 27.4084 29.6949L25.9621 29.0929C26.1537 28.5497 26.5053 28.0697 27.021 27.6549C27.5369 27.2402 28.1957 27.0317 28.9957 27.0317C29.5873 27.0317 30.1199 27.1455 30.5916 27.3749C31.0631 27.6044 31.4337 27.9223 31.701 28.3265C31.9684 28.7327 32.101 29.1876 32.101 29.6927C32.101 30.2085 31.9769 30.6442 31.7284 31.0021C31.4799 31.3601 31.1746 31.6337 30.8125 31.8253V31.9116C31.2905 32.1116 31.6799 32.4169 31.9873 32.8274C32.2925 33.238 32.4461 33.7285 32.4461 34.3012C32.4461 34.8738 32.3009 35.3853 32.0103 35.8338C31.7197 36.2823 31.3177 36.6359 30.8082 36.8927C30.2967 37.1495 29.722 37.2801 29.0841 37.2801C28.3452 37.2821 27.6631 37.0695 27.0337 36.6442Z" fill="#1A73E8"/>
<path d="M36.0005 29.3939L34.4046 30.5539L33.6025 29.3371L36.4805 27.2612H37.5837V37.0528H36.0005V29.3939Z" fill="#1A73E8"/>
<path d="M40.4215 47.9999L48.0003 40.421L44.2109 38.7368L40.4215 40.421L38.7373 44.2104L40.4215 47.9999Z" fill="#EA4335"/>
<path d="M21.8945 44.2103L23.5787 47.9998H40.4208V40.4209H23.5787L21.8945 44.2103Z" fill="#34A853"/>
<path d="M18.5262 16C17.1306 16 16 17.1306 16 18.5262V40.421L19.7894 42.1051L23.5789 40.421V23.5789H40.421L42.1051 19.7894L40.4211 16H18.5262Z" fill="#4285F4"/>
<path d="M16 40.4209V45.4735C16 46.8694 17.1306 47.9998 18.5262 47.9998H23.5789V40.4209H16Z" fill="#188038"/>
<path d="M40.4209 23.5787V40.4208H47.9998V23.5787L44.2103 21.8945L40.4209 23.5787Z" fill="#FBBC04"/>
<path d="M47.9998 23.5789V18.5262C47.9998 17.1304 46.8692 16 45.4735 16H40.4209V23.5789H47.9998Z" fill="#1967D2"/>
</svg>
