<svg width="64" height="64" viewBox="0 0 64 64" fill="none" xmlns="http://www.w3.org/2000/svg">
<circle cx="32" cy="32" r="32" fill="#0D0C0D"/>
<path d="M43.2335 26.8871C43.0625 27.0176 40.0437 28.6911 40.0437 32.4121C40.0437 36.7162 43.885 38.2388 44 38.2765C43.9823 38.3693 43.3898 40.3618 41.9747 42.392C40.7129 44.1786 39.3952 45.9623 37.3905 45.9623C35.3858 45.9623 34.8699 44.8167 32.5557 44.8167C30.3005 44.8167 29.4986 46 27.6649 46C25.8312 46 24.5518 44.3468 23.0807 42.3166C21.3767 39.9326 20 36.2289 20 32.7138C20 27.0756 23.7263 24.0854 27.3937 24.0854C29.3423 24.0854 30.9667 25.3441 32.1901 25.3441C33.3546 25.3441 35.1706 24.01 37.3875 24.01C38.2277 24.01 41.2465 24.0854 43.2335 26.8871ZM36.3351 21.6231C37.2519 20.5529 37.9005 19.0679 37.9005 17.583C37.9005 17.377 37.8828 17.1682 37.8445 17C36.3528 17.0551 34.5781 17.9774 33.5079 19.1984C32.6677 20.1381 31.8836 21.6231 31.8836 23.1283C31.8836 23.3545 31.9219 23.5808 31.9396 23.6533C32.0339 23.6707 32.1872 23.691 32.3405 23.691C33.6789 23.691 35.3622 22.8093 36.3351 21.6231Z" fill="white"/>
</svg>

