<svg width="12" height="12" viewBox="0 0 12 12" fill="none" xmlns="http://www.w3.org/2000/svg">
<path d="M6 0C6.14918 0 6.29226 0.0592632 6.39775 0.164752C6.50324 0.270242 6.5625 0.413316 6.5625 0.5625V1.6875C6.5625 1.83668 6.50324 1.97976 6.39775 2.08525C6.29226 2.19074 6.14918 2.25 6 2.25C5.85082 2.25 5.70774 2.19074 5.60225 2.08525C5.49676 1.97976 5.4375 1.83668 5.4375 1.6875V0.5625C5.4375 0.413316 5.49676 0.270242 5.60225 0.164752C5.70774 0.0592632 5.85082 0 6 0ZM6 9.75C6.14918 9.75 6.29226 9.80926 6.39775 9.91475C6.50324 10.0202 6.5625 10.1633 6.5625 10.3125V11.4375C6.5625 11.5867 6.50324 11.7298 6.39775 11.8352C6.29226 11.9407 6.14918 12 6 12C5.85082 12 5.70774 11.9407 5.60225 11.8352C5.49676 11.7298 5.4375 11.5867 5.4375 11.4375V10.3125C5.4375 10.1633 5.49676 10.0202 5.60225 9.91475C5.70774 9.80926 5.85082 9.75 6 9.75ZM6 3.75C5.40326 3.75 4.83097 3.98705 4.40901 4.40901C3.98705 4.83097 3.75 5.40326 3.75 6C3.75 6.59674 3.98705 7.16903 4.40901 7.59099C4.83097 8.01295 5.40326 8.25 6 8.25C6.59674 8.25 7.16903 8.01295 7.59099 7.59099C8.01295 7.16903 8.25 6.59674 8.25 6C8.25 5.40326 8.01295 4.83097 7.59099 4.40901C7.16903 3.98705 6.59674 3.75 6 3.75ZM10.2427 2.553C10.298 2.5015 10.3423 2.4394 10.3731 2.3704C10.4038 2.3014 10.4204 2.22692 10.4217 2.15139C10.423 2.07586 10.4091 2.00084 10.3808 1.9308C10.3526 1.86076 10.3104 1.79714 10.257 1.74372C10.2036 1.69031 10.14 1.6482 10.0699 1.61991C9.99991 1.59162 9.92489 1.57772 9.84936 1.57906C9.77383 1.58039 9.69935 1.59692 9.63035 1.62766C9.56135 1.65841 9.49925 1.70273 9.44775 1.758L8.652 2.553C8.55264 2.65963 8.49855 2.80067 8.50112 2.94639C8.50369 3.09212 8.56272 3.23116 8.66578 3.33422C8.76884 3.43728 8.90788 3.49631 9.05361 3.49888C9.19933 3.50145 9.34037 3.44736 9.447 3.348L10.2427 2.553ZM3.348 9.447C3.40327 9.3955 3.44759 9.3334 3.47834 9.2644C3.50908 9.1954 3.52561 9.12092 3.52694 9.04539C3.52828 8.96986 3.51438 8.89484 3.48609 8.8248C3.4578 8.75476 3.41569 8.69114 3.36228 8.63772C3.30886 8.58431 3.24524 8.5422 3.1752 8.51391C3.10516 8.48562 3.03014 8.47172 2.95461 8.47306C2.87908 8.47439 2.8046 8.49092 2.7356 8.52166C2.6666 8.55241 2.6045 8.59674 2.553 8.652L1.758 9.447C1.65864 9.55363 1.60455 9.69467 1.60712 9.84039C1.60969 9.98612 1.66872 10.1252 1.77178 10.2282C1.87484 10.3313 2.01388 10.3903 2.15961 10.3929C2.30533 10.3955 2.44637 10.3414 2.553 10.242L3.348 9.447ZM12 6C12 6.14918 11.9407 6.29226 11.8352 6.39775C11.7298 6.50324 11.5867 6.5625 11.4375 6.5625H10.3125C10.1633 6.5625 10.0202 6.50324 9.91475 6.39775C9.80926 6.29226 9.75 6.14918 9.75 6C9.75 5.85082 9.80926 5.70774 9.91475 5.60225C10.0202 5.49676 10.1633 5.4375 10.3125 5.4375H11.4375C11.5867 5.4375 11.7298 5.49676 11.8352 5.60225C11.9407 5.70774 12 5.85082 12 6ZM2.25 6C2.25 6.14918 2.19074 6.29226 2.08525 6.39775C1.97976 6.50324 1.83668 6.5625 1.6875 6.5625H0.5625C0.413316 6.5625 0.270242 6.50324 0.164752 6.39775C0.0592632 6.29226 0 6.14918 0 6C0 5.85082 0.0592632 5.70774 0.164752 5.60225C0.270242 5.49676 0.413316 5.4375 0.5625 5.4375H1.6875C1.83668 5.4375 1.97976 5.49676 2.08525 5.60225C2.19074 5.70774 2.25 5.85082 2.25 6ZM9.447 10.2427C9.55363 10.3421 9.69467 10.3962 9.84039 10.3936C9.98612 10.3911 10.1252 10.332 10.2282 10.229C10.3313 10.1259 10.3903 9.98687 10.3929 9.84114C10.3955 9.69542 10.3414 9.55438 10.242 9.44775L9.447 8.652C9.3955 8.59674 9.3334 8.55241 9.2644 8.52166C9.1954 8.49092 9.12092 8.47439 9.04539 8.47306C8.96986 8.47172 8.89484 8.48562 8.8248 8.51391C8.75476 8.5422 8.69114 8.58431 8.63772 8.63772C8.58431 8.69114 8.5422 8.75476 8.51391 8.8248C8.48562 8.89484 8.47172 8.96986 8.47306 9.04539C8.47439 9.12092 8.49092 9.1954 8.52166 9.2644C8.55241 9.3334 8.59674 9.3955 8.652 9.447L9.447 10.2427ZM2.553 3.348C2.65963 3.44736 2.80067 3.50145 2.94639 3.49888C3.09212 3.49631 3.23116 3.43728 3.33422 3.33422C3.43728 3.23116 3.49631 3.09212 3.49888 2.94639C3.50145 2.80067 3.44736 2.65963 3.348 2.553L2.553 1.758C2.50114 1.70425 2.43909 1.66137 2.37047 1.63186C2.30186 1.60235 2.22806 1.58679 2.15337 1.58611C2.07868 1.58543 2.00461 1.59962 1.93546 1.62787C1.86632 1.65612 1.8035 1.69786 1.75066 1.75065C1.69782 1.80344 1.65602 1.86623 1.62771 1.93534C1.59939 2.00446 1.58512 2.07852 1.58574 2.15321C1.58635 2.2279 1.60183 2.30171 1.63128 2.37036C1.66073 2.439 1.70355 2.50109 1.75725 2.553L2.553 3.348Z" fill="white"/>
</svg>
