<svg width="50" height="50" viewBox="0 0 50 50" fill="none" xmlns="http://www.w3.org/2000/svg">
<circle cx="25" cy="25" r="24.5" fill="white" stroke="#EEEFF2"/>
<path fill-rule="evenodd" clip-rule="evenodd" d="M32.3455 25.7057C29.2226 25.7057 26.691 28.234 26.691 31.3529C26.691 34.4717 29.2226 37 32.3455 37C35.4684 37 38 34.4717 38 31.3529C38 28.234 35.4684 25.7057 32.3455 25.7057ZM17.6545 25.7062C14.5316 25.7062 12 28.234 12 31.3529C12 34.4717 14.5316 37 17.6545 37C20.7776 37 23.3093 34.4717 23.3093 31.3529C23.3093 28.234 20.7776 25.7062 17.6545 25.7062ZM30.6544 18.6469C30.6544 21.7658 28.1229 24.2944 25.0001 24.2944C21.877 24.2944 19.3455 21.7658 19.3455 18.6469C19.3455 15.5285 21.877 13 25.0001 13C28.1229 13 30.6544 15.5285 30.6544 18.6469Z" fill="#F06A6A"/>
</svg>
