<svg width="16" height="16" viewBox="0 0 16 16" fill="none" xmlns="http://www.w3.org/2000/svg">
<path d="M8.75012 0.75C8.75012 0.551088 8.6711 0.360322 8.53045 0.21967C8.38979 0.0790175 8.19903 0 8.00012 0C7.8012 0 7.61044 0.0790175 7.46979 0.21967C7.32914 0.360322 7.25012 0.551088 7.25012 0.75V9.364L4.29512 6.235C4.2281 6.16102 4.14699 6.10116 4.05654 6.05893C3.96609 6.0167 3.86812 5.99295 3.76838 5.98907C3.66863 5.9852 3.56911 6.00127 3.47566 6.03636C3.38221 6.07144 3.2967 6.12483 3.22414 6.19339C3.15159 6.26195 3.09345 6.3443 3.05314 6.43562C3.01283 6.52694 2.99115 6.62539 2.98938 6.72519C2.9876 6.825 3.00577 6.92416 3.04282 7.01685C3.07987 7.10954 3.13504 7.19391 3.20512 7.265L7.45512 11.765C7.52521 11.8391 7.6097 11.8982 7.70341 11.9386C7.79712 11.9789 7.89808 11.9998 8.00012 11.9998C8.10215 11.9998 8.20311 11.9789 8.29682 11.9386C8.39053 11.8982 8.47502 11.8391 8.54512 11.765L12.7951 7.265C12.9268 7.11961 12.9963 6.9284 12.9887 6.73237C12.9811 6.53635 12.897 6.35111 12.7544 6.21637C12.6118 6.08163 12.4221 6.00813 12.2259 6.01161C12.0298 6.01509 11.8428 6.09529 11.7051 6.235L8.75012 9.364V0.75Z" fill="black"/>
<path d="M1.5 10.75C1.5 10.5511 1.42098 10.3603 1.28033 10.2197C1.13968 10.079 0.948912 10 0.75 10C0.551088 10 0.360322 10.079 0.21967 10.2197C0.0790175 10.3603 4.19177e-09 10.5511 0 10.75V13.25C0 13.9793 0.289731 14.6788 0.805456 15.1945C1.32118 15.7103 2.02065 16 2.75 16H13.25C13.9793 16 14.6788 15.7103 15.1945 15.1945C15.7103 14.6788 16 13.9793 16 13.25V10.75C16 10.5511 15.921 10.3603 15.7803 10.2197C15.6397 10.079 15.4489 10 15.25 10C15.0511 10 14.8603 10.079 14.7197 10.2197C14.579 10.3603 14.5 10.5511 14.5 10.75V13.25C14.5 13.94 13.94 14.5 13.25 14.5H2.75C2.06 14.5 1.5 13.94 1.5 13.25V10.75Z" fill="black"/>
</svg>
