<svg width="64" height="64" viewBox="0 0 64 64" fill="none" xmlns="http://www.w3.org/2000/svg">
<circle cx="32" cy="32" r="31.5" fill="#1A1A1A" stroke="#2D2D2D"/>
<path d="M40.4206 23.5784L32.8418 22.7363L23.5786 23.5784L22.7363 31.9995L23.5784 40.4207L31.9995 41.4733L40.4206 40.4207L41.2627 31.7891L40.4206 23.5784Z" fill="white"/>
<path d="M27.0337 36.6437C26.4042 36.2185 25.9684 35.5975 25.7305 34.7764L27.1916 34.1743C27.3242 34.6796 27.5557 35.0711 27.8863 35.349C28.2148 35.6269 28.6148 35.7637 29.0821 35.7637C29.5601 35.7637 29.9706 35.6185 30.3137 35.3279C30.6567 35.0373 30.8295 34.6668 30.8295 34.2184C30.8295 33.7596 30.6484 33.3847 30.2863 33.0943C29.9242 32.8039 29.4695 32.6584 28.9263 32.6584H28.0821V31.2122H28.8399C29.3073 31.2122 29.701 31.086 30.021 30.8333C30.341 30.5807 30.501 30.2354 30.501 29.7954C30.501 29.4039 30.3578 29.0922 30.0716 28.8586C29.7853 28.625 29.4231 28.5071 28.9831 28.5071C28.5537 28.5071 28.2125 28.6209 27.9599 28.8503C27.7073 29.0797 27.5241 29.3618 27.4084 29.6945L25.9621 29.0924C26.1537 28.5492 26.5053 28.0692 27.021 27.6545C27.5369 27.2397 28.1957 27.0312 28.9957 27.0312C29.5873 27.0312 30.1199 27.145 30.5916 27.3745C31.0631 27.6039 31.4337 27.9218 31.701 28.326C31.9684 28.7322 32.101 29.1871 32.101 29.6922C32.101 30.2081 31.9769 30.6437 31.7284 31.0017C31.4799 31.3596 31.1746 31.6332 30.8125 31.8248V31.9111C31.2905 32.1111 31.6799 32.4164 31.9873 32.8269C32.2925 33.2375 32.4461 33.7281 32.4461 34.3007C32.4461 34.8733 32.3009 35.3848 32.0103 35.8333C31.7197 36.2818 31.3177 36.6354 30.8082 36.8922C30.2967 37.149 29.722 37.2796 29.0841 37.2796C28.3452 37.2817 27.6631 37.069 27.0337 36.6437Z" fill="#1A73E8"/>
<path d="M36.0005 29.3934L34.4046 30.5534L33.6025 29.3366L36.4805 27.2607H37.5837V37.0523H36.0005V29.3934Z" fill="#1A73E8"/>
<path d="M40.4215 48.0003L48.0003 40.4215L44.2109 38.7373L40.4215 40.4215L38.7373 44.2109L40.4215 48.0003Z" fill="#EA4335"/>
<path d="M21.8945 44.2103L23.5787 47.9998H40.4208V40.4209H23.5787L21.8945 44.2103Z" fill="#34A853"/>
<path d="M18.5262 16C17.1306 16 16 17.1306 16 18.5262V40.421L19.7894 42.1051L23.5789 40.421V23.5789H40.421L42.1051 19.7894L40.4211 16H18.5262Z" fill="#4285F4"/>
<path d="M16 40.4209V45.4735C16 46.8694 17.1306 47.9998 18.5262 47.9998H23.5789V40.4209H16Z" fill="#188038"/>
<path d="M40.4209 23.5787V40.4208H47.9998V23.5787L44.2103 21.8945L40.4209 23.5787Z" fill="#FBBC04"/>
<path d="M47.9998 23.5789V18.5262C47.9998 17.1304 46.8692 16 45.4735 16H40.4209V23.5789H47.9998Z" fill="#1967D2"/>
</svg>
