<svg width="72" height="20" viewBox="0 0 72 20" fill="none" xmlns="http://www.w3.org/2000/svg">
<path d="M57.7617 19.7171L62.807 12.8097L57.7617 5.90234H61.8784L64.8808 10.0154L67.8831 5.90234H71.9998L66.9236 12.8097L71.9998 19.7171H67.8831L64.8808 15.6354L61.8784 19.7171H57.7617Z" fill="black"/>
<path d="M54.3145 4.61652C53.8399 4.61652 53.4272 4.44907 53.0764 4.11417C52.7256 3.75834 52.5502 3.32925 52.5502 2.82689C52.5502 2.32454 52.7256 1.89544 53.0764 1.53961C53.4272 1.18378 53.8399 1.00586 54.3145 1.00586C54.8097 1.00586 55.2327 1.18378 55.5835 1.53961C55.9343 1.89544 56.1097 2.32454 56.1097 2.82689C56.1097 3.32925 55.9343 3.75834 55.5835 4.11417C55.2327 4.44907 54.8097 4.61652 54.3145 4.61652ZM52.4883 19.7185V5.90381H56.0478V19.7185H52.4883Z" fill="black"/>
<path d="M45.8242 19.7174V0H49.3837V19.7174H45.8242Z" fill="black"/>
<path d="M39.7793 19.7174V0H43.3388V19.7174H39.7793Z" fill="black"/>
<path d="M33.8548 15.6034L35.9596 18.1466C34.5151 19.3815 32.7715 19.999 30.7286 19.999C28.5826 19.999 26.7564 19.3083 25.2501 17.9268C23.7643 16.5244 23.0215 14.8185 23.0215 12.8091C23.0215 10.7787 23.7231 9.07282 25.1262 7.69135C26.5294 6.30988 28.2937 5.61914 30.4191 5.61914C32.5239 5.61914 34.2262 6.30988 35.5262 7.69135C36.8262 9.05189 37.4762 10.7578 37.4762 12.8091V13.8452H26.581C26.8286 14.7452 27.3342 15.4883 28.0977 16.0744C28.8818 16.6605 29.7588 16.9535 30.7286 16.9535C31.9461 16.9535 32.9881 16.5035 33.8548 15.6034ZM26.8905 10.8939H33.731C33.4628 10.224 33.0294 9.6903 32.431 9.2926C31.8532 8.87397 31.1826 8.66466 30.4191 8.66466C28.7889 8.66466 27.6128 9.40772 26.8905 10.8939Z" fill="black"/>
<path d="M14.7812 19.7171V11.962C14.7812 10.2665 15.3693 8.83274 16.5455 7.66058C17.7424 6.48842 19.3209 5.90234 21.2812 5.90234V9.13624C20.3733 9.13624 19.6511 9.41882 19.1146 9.98397C18.5781 10.5282 18.3098 11.334 18.3098 12.4015V19.7171H14.7812Z" fill="black"/>
<path d="M0 19.7174V0H3.55952V11.5227L9.1 5.90265H13.1857L7.11904 12.1821L14.0833 19.7174H9.65714L4.82857 14.6938L3.55952 15.8555V19.7174H0Z" fill="black"/>
</svg>
