<svg width="262" height="80" viewBox="0 0 262 80" fill="none" xmlns="http://www.w3.org/2000/svg">
<g style="mix-blend-mode:overlay">
<g style="mix-blend-mode:overlay">
<path d="M193.877 65.7229L210.811 42.6983L193.877 19.6737H207.694L217.772 33.3838L227.849 19.6737H241.667L224.629 42.6983L241.667 65.7229H227.849L217.772 52.1175L207.694 65.7229H193.877Z" fill="black" fill-opacity="0.3"/>
<path d="M182.302 15.3824C180.709 15.3824 179.324 14.8242 178.147 13.7079C176.969 12.5218 176.381 11.0914 176.381 9.41692C176.381 7.74241 176.969 6.31209 178.147 5.12597C179.324 3.93986 180.709 3.3468 182.302 3.3468C183.965 3.3468 185.385 3.93986 186.562 5.12597C187.739 6.31209 188.328 7.74241 188.328 9.41692C188.328 11.0914 187.739 12.5218 186.562 13.7079C185.385 14.8242 183.965 15.3824 182.302 15.3824ZM176.173 65.7226V19.6733H188.12V65.7226H176.173Z" fill="black" fill-opacity="0.3"/>
<path d="M153.808 65.7248V0H165.756V65.7248H153.808Z" fill="black" fill-opacity="0.3"/>
<path d="M133.515 65.7248V0H145.463V65.7248H133.515Z" fill="black" fill-opacity="0.3"/>
<path d="M113.631 52.0148L120.696 60.492C115.848 64.6086 109.995 66.6668 103.138 66.6668C95.9353 66.6668 89.8057 64.3644 84.7497 59.7594C79.7629 55.0847 77.2695 49.3984 77.2695 42.7003C77.2695 35.9325 79.6244 30.2461 84.3341 25.6411C89.0438 21.0362 94.9656 18.7338 102.099 18.7338C109.164 18.7338 114.878 21.0362 119.241 25.6411C123.605 30.1763 125.787 35.8627 125.787 42.7003V46.154H89.217C90.0481 49.1542 91.745 51.631 94.3076 53.5847C96.9395 55.5383 99.8831 56.5151 103.138 56.5151C107.225 56.5151 110.722 55.015 113.631 52.0148ZM90.2559 36.3162H113.216C112.315 34.0835 110.861 32.3043 108.852 30.9787C106.913 29.5832 104.662 28.8855 102.099 28.8855C96.6278 28.8855 92.68 31.3624 90.2559 36.3162Z" fill="black" fill-opacity="0.3"/>
<path d="M49.6128 65.7229V39.8726C49.6128 34.2211 51.5867 29.4417 55.5346 25.5345C59.5517 21.6273 64.8501 19.6737 71.4299 19.6737V30.4534C68.3824 30.4534 65.9583 31.3953 64.1575 33.2792C62.3567 35.0932 61.4563 37.7794 61.4563 41.3378V65.7229H49.6128Z" fill="black" fill-opacity="0.3"/>
<path d="M0 65.7248V0H11.9474V38.4092L30.5439 19.6756H44.2575L23.8949 40.607L47.2703 65.7248H32.4139L16.207 48.9796L11.9474 52.8519V65.7248H0Z" fill="black" fill-opacity="0.3"/>
</g>
<g style="mix-blend-mode:soft-light">
<path d="M193.877 65.7229L210.811 42.6983L193.877 19.6737H207.694L217.772 33.3838L227.849 19.6737H241.667L224.629 42.6983L241.667 65.7229H227.849L217.772 52.1175L207.694 65.7229H193.877Z" fill="black" fill-opacity="0.3"/>
<path d="M182.302 15.3824C180.709 15.3824 179.324 14.8242 178.147 13.7079C176.969 12.5218 176.381 11.0914 176.381 9.41692C176.381 7.74241 176.969 6.31209 178.147 5.12597C179.324 3.93986 180.709 3.3468 182.302 3.3468C183.965 3.3468 185.385 3.93986 186.562 5.12597C187.739 6.31209 188.328 7.74241 188.328 9.41692C188.328 11.0914 187.739 12.5218 186.562 13.7079C185.385 14.8242 183.965 15.3824 182.302 15.3824ZM176.173 65.7226V19.6733H188.12V65.7226H176.173Z" fill="black" fill-opacity="0.3"/>
<path d="M153.808 65.7248V0H165.756V65.7248H153.808Z" fill="black" fill-opacity="0.3"/>
<path d="M133.515 65.7248V0H145.463V65.7248H133.515Z" fill="black" fill-opacity="0.3"/>
<path d="M113.631 52.0148L120.696 60.492C115.848 64.6086 109.995 66.6668 103.138 66.6668C95.9353 66.6668 89.8057 64.3644 84.7497 59.7594C79.7629 55.0847 77.2695 49.3984 77.2695 42.7003C77.2695 35.9325 79.6244 30.2461 84.3341 25.6411C89.0438 21.0362 94.9656 18.7338 102.099 18.7338C109.164 18.7338 114.878 21.0362 119.241 25.6411C123.605 30.1763 125.787 35.8627 125.787 42.7003V46.154H89.217C90.0481 49.1542 91.745 51.631 94.3076 53.5847C96.9395 55.5383 99.8831 56.5151 103.138 56.5151C107.225 56.5151 110.722 55.015 113.631 52.0148ZM90.2559 36.3162H113.216C112.315 34.0835 110.861 32.3043 108.852 30.9787C106.913 29.5832 104.662 28.8855 102.099 28.8855C96.6278 28.8855 92.68 31.3624 90.2559 36.3162Z" fill="black" fill-opacity="0.3"/>
<path d="M49.6128 65.7229V39.8726C49.6128 34.2211 51.5867 29.4417 55.5346 25.5345C59.5517 21.6273 64.8501 19.6737 71.4299 19.6737V30.4534C68.3824 30.4534 65.9583 31.3953 64.1575 33.2792C62.3567 35.0932 61.4563 37.7794 61.4563 41.3378V65.7229H49.6128Z" fill="black" fill-opacity="0.3"/>
<path d="M0 65.7248V0H11.9474V38.4092L30.5439 19.6756H44.2575L23.8949 40.607L47.2703 65.7248H32.4139L16.207 48.9796L11.9474 52.8519V65.7248H0Z" fill="black" fill-opacity="0.3"/>
</g>
</g>
<g style="mix-blend-mode:soft-light">
<g style="mix-blend-mode:overlay">
<path d="M213.877 79.0562L230.811 56.0316L213.877 33.007H227.694L237.772 46.7171L247.849 33.007H261.667L244.629 56.0316L261.667 79.0562H247.849L237.772 65.4507L227.694 79.0562H213.877Z" fill="white"/>
<path d="M202.302 28.7156C200.709 28.7156 199.324 28.1575 198.147 27.0411C196.969 25.855 196.381 24.4247 196.381 22.7502C196.381 21.0757 196.969 19.6453 198.147 18.4592C199.324 17.2731 200.709 16.6801 202.302 16.6801C203.965 16.6801 205.385 17.2731 206.562 18.4592C207.739 19.6453 208.328 21.0757 208.328 22.7502C208.328 24.4247 207.739 25.855 206.562 27.0411C205.385 28.1575 203.965 28.7156 202.302 28.7156ZM196.173 79.0558V33.0066H208.12V79.0558H196.173Z" fill="white"/>
<path d="M173.808 79.0582V13.3334H185.756V79.0582H173.808Z" fill="white"/>
<path d="M153.515 79.0582V13.3334H165.463V79.0582H153.515Z" fill="white"/>
<path d="M133.631 65.348L140.696 73.8253C135.848 77.9418 129.995 80.0001 123.138 80.0001C115.935 80.0001 109.806 77.6976 104.75 73.0927C99.7629 68.418 97.2695 62.7316 97.2695 56.0335C97.2695 49.2657 99.6244 43.5793 104.334 38.9744C109.044 34.3695 114.966 32.067 122.099 32.067C129.164 32.067 134.878 34.3695 139.241 38.9744C143.605 43.5096 145.787 49.1959 145.787 56.0335V59.4872H109.217C110.048 62.4874 111.745 64.9643 114.308 66.9179C116.94 68.8715 119.883 69.8483 123.138 69.8483C127.225 69.8483 130.722 68.3482 133.631 65.348ZM110.256 49.6494H133.216C132.315 47.4168 130.861 45.6376 128.852 44.3119C126.913 42.9165 124.662 42.2188 122.099 42.2188C116.628 42.2188 112.68 44.6957 110.256 49.6494Z" fill="white"/>
<path d="M69.6128 79.0562V53.2058C69.6128 47.5543 71.5867 42.775 75.5346 38.8678C79.5517 34.9606 84.8501 33.007 91.4299 33.007V43.7867C88.3824 43.7867 85.9583 44.7286 84.1575 46.6124C82.3567 48.4265 81.4563 51.1127 81.4563 54.671V79.0562H69.6128Z" fill="white"/>
<path d="M20 79.0582V13.3334H31.9474V51.7426L50.5439 33.0089H64.2575L43.8949 53.9404L67.2703 79.0582H52.4139L36.207 62.313L31.9474 66.1853V79.0582H20Z" fill="white"/>
</g>
<g style="mix-blend-mode:soft-light">
<path d="M213.877 79.0562L230.811 56.0316L213.877 33.007H227.694L237.772 46.7171L247.849 33.007H261.667L244.629 56.0316L261.667 79.0562H247.849L237.772 65.4507L227.694 79.0562H213.877Z" fill="white"/>
<path d="M202.302 28.7156C200.709 28.7156 199.324 28.1575 198.147 27.0411C196.969 25.855 196.381 24.4247 196.381 22.7502C196.381 21.0757 196.969 19.6453 198.147 18.4592C199.324 17.2731 200.709 16.6801 202.302 16.6801C203.965 16.6801 205.385 17.2731 206.562 18.4592C207.739 19.6453 208.328 21.0757 208.328 22.7502C208.328 24.4247 207.739 25.855 206.562 27.0411C205.385 28.1575 203.965 28.7156 202.302 28.7156ZM196.173 79.0558V33.0066H208.12V79.0558H196.173Z" fill="white"/>
<path d="M173.808 79.0582V13.3334H185.756V79.0582H173.808Z" fill="white"/>
<path d="M153.515 79.0582V13.3334H165.463V79.0582H153.515Z" fill="white"/>
<path d="M133.631 65.348L140.696 73.8253C135.848 77.9418 129.995 80.0001 123.138 80.0001C115.935 80.0001 109.806 77.6976 104.75 73.0927C99.7629 68.418 97.2695 62.7316 97.2695 56.0335C97.2695 49.2657 99.6244 43.5793 104.334 38.9744C109.044 34.3695 114.966 32.067 122.099 32.067C129.164 32.067 134.878 34.3695 139.241 38.9744C143.605 43.5096 145.787 49.1959 145.787 56.0335V59.4872H109.217C110.048 62.4874 111.745 64.9643 114.308 66.9179C116.94 68.8715 119.883 69.8483 123.138 69.8483C127.225 69.8483 130.722 68.3482 133.631 65.348ZM110.256 49.6494H133.216C132.315 47.4168 130.861 45.6376 128.852 44.3119C126.913 42.9165 124.662 42.2188 122.099 42.2188C116.628 42.2188 112.68 44.6957 110.256 49.6494Z" fill="white"/>
<path d="M69.6128 79.0562V53.2058C69.6128 47.5543 71.5867 42.775 75.5346 38.8678C79.5517 34.9606 84.8501 33.007 91.4299 33.007V43.7867C88.3824 43.7867 85.9583 44.7286 84.1575 46.6124C82.3567 48.4265 81.4563 51.1127 81.4563 54.671V79.0562H69.6128Z" fill="white"/>
<path d="M20 79.0582V13.3334H31.9474V51.7426L50.5439 33.0089H64.2575L43.8949 53.9404L67.2703 79.0582H52.4139L36.207 62.313L31.9474 66.1853V79.0582H20Z" fill="white"/>
</g>
</g>
<g style="mix-blend-mode:soft-light">
<g style="mix-blend-mode:overlay">
<path d="M213.877 79.0562L230.811 56.0316L213.877 33.007H227.694L237.772 46.7171L247.849 33.007H261.667L244.629 56.0316L261.667 79.0562H247.849L237.772 65.4507L227.694 79.0562H213.877Z" fill="white"/>
<path d="M202.302 28.7156C200.709 28.7156 199.324 28.1575 198.147 27.0411C196.969 25.855 196.381 24.4247 196.381 22.7502C196.381 21.0757 196.969 19.6453 198.147 18.4592C199.324 17.2731 200.709 16.6801 202.302 16.6801C203.965 16.6801 205.385 17.2731 206.562 18.4592C207.739 19.6453 208.328 21.0757 208.328 22.7502C208.328 24.4247 207.739 25.855 206.562 27.0411C205.385 28.1575 203.965 28.7156 202.302 28.7156ZM196.173 79.0558V33.0066H208.12V79.0558H196.173Z" fill="white"/>
<path d="M173.808 79.0582V13.3334H185.756V79.0582H173.808Z" fill="white"/>
<path d="M153.515 79.0582V13.3334H165.463V79.0582H153.515Z" fill="white"/>
<path d="M133.631 65.348L140.696 73.8253C135.848 77.9418 129.995 80.0001 123.138 80.0001C115.935 80.0001 109.806 77.6976 104.75 73.0927C99.7629 68.418 97.2695 62.7316 97.2695 56.0335C97.2695 49.2657 99.6244 43.5793 104.334 38.9744C109.044 34.3695 114.966 32.067 122.099 32.067C129.164 32.067 134.878 34.3695 139.241 38.9744C143.605 43.5096 145.787 49.1959 145.787 56.0335V59.4872H109.217C110.048 62.4874 111.745 64.9643 114.308 66.9179C116.94 68.8715 119.883 69.8483 123.138 69.8483C127.225 69.8483 130.722 68.3482 133.631 65.348ZM110.256 49.6494H133.216C132.315 47.4168 130.861 45.6376 128.852 44.3119C126.913 42.9165 124.662 42.2188 122.099 42.2188C116.628 42.2188 112.68 44.6957 110.256 49.6494Z" fill="white"/>
<path d="M69.6128 79.0562V53.2058C69.6128 47.5543 71.5867 42.775 75.5346 38.8678C79.5517 34.9606 84.8501 33.007 91.4299 33.007V43.7867C88.3824 43.7867 85.9583 44.7286 84.1575 46.6124C82.3567 48.4265 81.4563 51.1127 81.4563 54.671V79.0562H69.6128Z" fill="white"/>
<path d="M20 79.0582V13.3334H31.9474V51.7426L50.5439 33.0089H64.2575L43.8949 53.9404L67.2703 79.0582H52.4139L36.207 62.313L31.9474 66.1853V79.0582H20Z" fill="white"/>
</g>
<g style="mix-blend-mode:soft-light">
<path d="M213.877 79.0562L230.811 56.0316L213.877 33.007H227.694L237.772 46.7171L247.849 33.007H261.667L244.629 56.0316L261.667 79.0562H247.849L237.772 65.4507L227.694 79.0562H213.877Z" fill="white"/>
<path d="M202.302 28.7156C200.709 28.7156 199.324 28.1575 198.147 27.0411C196.969 25.855 196.381 24.4247 196.381 22.7502C196.381 21.0757 196.969 19.6453 198.147 18.4592C199.324 17.2731 200.709 16.6801 202.302 16.6801C203.965 16.6801 205.385 17.2731 206.562 18.4592C207.739 19.6453 208.328 21.0757 208.328 22.7502C208.328 24.4247 207.739 25.855 206.562 27.0411C205.385 28.1575 203.965 28.7156 202.302 28.7156ZM196.173 79.0558V33.0066H208.12V79.0558H196.173Z" fill="white"/>
<path d="M173.808 79.0582V13.3334H185.756V79.0582H173.808Z" fill="white"/>
<path d="M153.515 79.0582V13.3334H165.463V79.0582H153.515Z" fill="white"/>
<path d="M133.631 65.348L140.696 73.8253C135.848 77.9418 129.995 80.0001 123.138 80.0001C115.935 80.0001 109.806 77.6976 104.75 73.0927C99.7629 68.418 97.2695 62.7316 97.2695 56.0335C97.2695 49.2657 99.6244 43.5793 104.334 38.9744C109.044 34.3695 114.966 32.067 122.099 32.067C129.164 32.067 134.878 34.3695 139.241 38.9744C143.605 43.5096 145.787 49.1959 145.787 56.0335V59.4872H109.217C110.048 62.4874 111.745 64.9643 114.308 66.9179C116.94 68.8715 119.883 69.8483 123.138 69.8483C127.225 69.8483 130.722 68.3482 133.631 65.348ZM110.256 49.6494H133.216C132.315 47.4168 130.861 45.6376 128.852 44.3119C126.913 42.9165 124.662 42.2188 122.099 42.2188C116.628 42.2188 112.68 44.6957 110.256 49.6494Z" fill="white"/>
<path d="M69.6128 79.0562V53.2058C69.6128 47.5543 71.5867 42.775 75.5346 38.8678C79.5517 34.9606 84.8501 33.007 91.4299 33.007V43.7867C88.3824 43.7867 85.9583 44.7286 84.1575 46.6124C82.3567 48.4265 81.4563 51.1127 81.4563 54.671V79.0562H69.6128Z" fill="white"/>
<path d="M20 79.0582V13.3334H31.9474V51.7426L50.5439 33.0089H64.2575L43.8949 53.9404L67.2703 79.0582H52.4139L36.207 62.313L31.9474 66.1853V79.0582H20Z" fill="white"/>
</g>
</g>
</svg>
