<svg width="64" height="64" viewBox="0 0 64 64" fill="none" xmlns="http://www.w3.org/2000/svg">
<circle cx="32" cy="32" r="31.5" fill="white" stroke="#EEEFF2"/>
<path fill-rule="evenodd" clip-rule="evenodd" d="M36.8701 16.073L18.9488 17.3808C17.503 17.5044 17 18.4378 17 19.5565V38.9675C17 39.8388 17.3132 40.5844 18.0688 41.5809L22.2815 46.993C22.9737 47.8643 23.603 48.0512 24.9244 47.9891L45.7361 46.7443C47.4957 46.6205 48 45.8109 48 44.4426V22.6051C48 21.8979 47.7173 21.6941 46.8849 21.0906L41.0213 17.0061C39.6374 16.0119 39.0716 15.8861 36.8701 16.0727V16.073ZM25.395 22.2477C23.6956 22.3606 23.3102 22.3862 22.345 21.6109L19.8913 19.6826C19.6419 19.433 19.7672 19.1216 20.3956 19.0595L37.6238 17.8157C39.0706 17.6909 39.8239 18.1892 40.3898 18.6244L43.3445 20.7395C43.4708 20.8026 43.785 21.1747 43.407 21.1747L25.6152 22.2329L25.395 22.2477ZM23.4138 44.256V25.7177C23.4138 24.9081 23.6655 24.5347 24.4188 24.472L44.8538 23.2899C45.5469 23.2281 45.8601 23.6633 45.8601 24.4716V42.8865C45.8601 43.696 45.7338 44.3808 44.6025 44.4426L25.0475 45.5626C23.9162 45.6243 23.4142 45.2522 23.4142 44.256H23.4138ZM42.7172 26.7116C42.8425 27.2716 42.7172 27.8316 42.1504 27.8956L41.2079 28.0802V41.7674C40.3894 42.2026 39.6361 42.4513 39.0065 42.4513C38.0002 42.4513 37.7488 42.1399 36.9952 41.2074L30.8317 31.6268V40.8961L32.7815 41.3322C32.7815 41.3322 32.7815 42.4522 31.2084 42.4522L26.8716 42.7009C26.7453 42.4513 26.8716 41.8295 27.3111 41.7057L28.4437 41.3953V29.1394L26.8719 29.0137C26.7456 28.4537 27.0598 27.645 27.9407 27.5823L32.5939 27.2729L39.0068 36.9774V28.3919L37.3722 28.2063C37.2458 27.5206 37.7488 27.0223 38.3772 26.9615L42.7172 26.7116Z" fill="black"/>
</svg>
