<svg width="12" height="12" viewBox="0 0 12 12" fill="none" xmlns="http://www.w3.org/2000/svg">
<path d="M5.38593 11.4558C5.38593 11.7562 5.661 11.9999 5.99996 12C6.33907 12 6.61403 11.7563 6.61403 11.4558V1.85837L10.9519 5.70327L11.0484 5.77275C11.2866 5.91212 11.6104 5.88896 11.8202 5.70327C12.0599 5.49074 12.0599 5.1454 11.8202 4.93287L6.43454 0.159365C6.19485 -0.0531632 5.80605 -0.0530814 5.56626 0.159365L0.179735 4.93287L0.101291 5.01839C-0.0561409 5.22961 -0.0301036 5.51726 0.179735 5.70327C0.389574 5.8892 0.714124 5.91228 0.952456 5.77275L1.04893 5.70327L5.38593 1.85918V11.4558Z" fill="white"/>
</svg>
